<?xml version="1.0" standalone="no"?>
<!DOCTYPE svg PUBLIC "-//W3C//DTD SVG 20010904//EN"
 "http://www.w3.org/TR/2001/REC-SVG-20010904/DTD/svg10.dtd">
<svg version="1.0" xmlns="http://www.w3.org/2000/svg"
 width="20.000000pt" height="20.000000pt" viewBox="0 0 20.000000 20.000000"
 preserveAspectRatio="xMidYMid meet">
<metadata>
Created by potrace 1.13, written by Peter Selinger 2001-2015
</metadata>
<g transform="translate(0.000000,20.000000) scale(0.100000,-0.100000)"
fill="#000000" stroke="none">
<path d="M0 100 l0 -100 100 0 100 0 0 100 0 100 -100 0 -100 0 0 -100z m190 0 l0 -90 -90 0 -90 0 0 90 0 90 90 0 90 0 0 -90z"/>
<path d="M96 153 c-10 -24 20 -51 41 -37 9 6 19 17 22 25 4 12 2 12 -12 1 -19 -16 -41 -6 -33 14 3 8 1 14 -3 14 -5 0 -12 -8 -15 -17z"/>
<path d="M63 75 c-26 -40 -28 -46 -11 -42 16 3 57 59 51 70 -8 13 -18 7 -40 -28z"/>
</g>
</svg>
