<?xml version="1.0" standalone="no"?>
<!DOCTYPE svg PUBLIC "-//W3C//DTD SVG 20010904//EN"
 "http://www.w3.org/TR/2001/REC-SVG-20010904/DTD/svg10.dtd">
<svg version="1.0" xmlns="http://www.w3.org/2000/svg"
 width="20.000000pt" height="20.000000pt" viewBox="0 0 20.000000 20.000000"
 preserveAspectRatio="xMidYMid meet">
<metadata>
Created by potrace 1.13, written by Peter Selinger 2001-2015
</metadata>
<g transform="translate(0.000000,20.000000) scale(0.100000,-0.100000)"
fill="#000000" stroke="none">
<path d="M2 100 l0 -98 98 0 98 0 0 98 0 98 -98 0 -98 0 0 -98z m162 64 c37
-37 36 -91 -2 -127 -85 -82 -207 40 -125 125 36 38 90 39 127 2z"/>
<path d="M70 151 c0 -4 11 -6 25 -3 29 5 35 -17 10 -38 -8 -7 -15 -19 -15 -27
0 -9 11 -2 26 16 14 17 23 38 20 46 -6 16 -66 22 -66 6z"/>
<path d="M86 51 c-4 -5 -2 -12 3 -15 5 -4 12 -2 15 3 4 5 2 12 -3 15 -5 4 -12
2 -15 -3z"/>
</g>
</svg>
